<svg id="Layer_1" data-name="Layer 1" xmlns="http://www.w3.org/2000/svg" xmlns:xlink="http://www.w3.org/1999/xlink" viewBox="0 0 556.8 419.66"><defs><style>.cls-1{fill:none;}.cls-2{fill:#fffee0;}.cls-3{clip-path:url(#clip-path);}.cls-4{clip-path:url(#clip-path-2);}.cls-5{fill:#e8c36a;}.cls-6{fill:#ed8843;}.cls-7{fill:#d85036;}.cls-8{fill:#059b81;}.cls-9{fill:#02424c;}.cls-10{clip-path:url(#clip-path-8);}.cls-11{clip-path:url(#clip-path-9);}</style><clipPath id="clip-path"><path class="cls-1" d="M543,206.47c0,34.18-37.06,64-37.06,64s-.33.41-1.08,1.21l-.27.28-.81.82-.14.13c-.69.68-1.56,1.5-2.64,2.47l-.57.52-.45.39-.67.58c-.15.14-.32.27-.49.41l-.4.35-.71.59c-.16.15-.33.29-.51.43l-.09.07c-.3.25-.61.51-.94.76l-1.22,1-1.24,1-.14.11-1.14.87c-.19.16-.39.31-.59.45l-.61.46-.94.71-1,.72-1.36,1-.7.51-2.21,1.56-1.45,1c-.5.34-1,.68-1.52,1l-1.05.71-.85.57-.88.58c-8.32,5.54-19,12.07-32.68,19.51l-2.4,1.3q-9.13,4.92-20,10.34l-4,2c-8.15,4-17,8.17-26.71,12.54q-16.27,7.33-35.63,15.33L354.69,354q-4.9,2-10,4.06-12.25,4.9-24.15,9.2-12.25,4.43-24.09,8.2a499.86,499.86,0,0,1-58,15c-27.82,5.32-53.2,7.15-75.82,5.32a182.19,182.19,0,0,1-20-2.7,141.46,141.46,0,0,1-27.47-8.18l-1.32-.57a108.87,108.87,0,0,1-40.39-29.48q-5.65-6.63-10.58-13.31c-.27-.36-.53-.71-.78-1.06s-.51-.68-.75-1c-1.47-2-2.73-3.81-3.77-5.33-.7-1-1.75-2.57-3-4.48,0,0,0,0,0,0l0,0s0,0,0,0l0,0,0-.05,0,0-.39-.6-.14-.22q-.27-.39-.51-.78a.75.75,0,0,0-.07-.12l-.13-.18-.15-.24.06.08-.23-.36-.49-.76-.24-.39c-.09-.14-.18-.27-.26-.41q-3-4.81-5.71-9.61c-.22-.39-.43-.76-.64-1.15-3.19-5.93-5.5-10.47-6.24-12-.28-.58-1.86-3.85-3.57-7.71-5-11.3-8.36-21.55-9.18-24.1a267,267,0,0,1-7-26.59c-.46-2.16-1.14-5.53-1.88-9.9-1.26-7.38-2.71-17.61-3.54-29.64q-.07-1.08-.15-2.31c-.72-13.66.39-39,7.17-66.32s19.31-57,41.44-79c15.25-15.15,35.08-26.68,60.75-31.44,3.24-.6,6.58-1.1,10-1.47,0,0,4.74-.54,13.51-.87,3.52-.14,7.69-.23,12.47-.24,5.07,0,10.81.06,17.19.29,0,0,11.49.41,23.78,1.45l4.15.36,5.48.53c30.17,3,62,9.77,62,9.77q18.83,4,37.35,9.18,7.08,2,14.1,4.12,7.51,2.28,15,4.77,4.59,1.53,9,3.07c1.39.48,2.77,1,4.14,1.44A673.06,673.06,0,0,1,425.8,89.1c1.19.58,2.36,1.16,3.51,1.75l3,1.51.48.25.93.47,1.51.79.82.42.56.29.07,0,.58.31.36.19.45.23.28.14.74.39.33.17,1.27.67.32.17.13.07.08,0,.09,0,.1.06h0l.24.13.42.22,1.27.68c2.92,1.58,5.71,3.12,8.4,4.65,8,4.49,14.93,8.74,20.95,12.62,1.31.84,2.57,1.67,3.79,2.47l1.8,1.2,1.72,1.17c16.1,10.94,23.4,18,23.4,18S543,167.33,543,206.47Z"/></clipPath><clipPath id="clip-path-2"><path class="cls-1" d="M533.35,264.15c-9.64,37-58.21,58.86-58.21,58.86s-.48.36-1.51,1l-.38.23-1.11.66-.18.1c-.94.54-2.12,1.18-3.56,1.93l-.77.4-.59.3-.89.44c-.21.11-.43.2-.65.3s-.36.18-.53.27l-.94.44a6.9,6.9,0,0,1-.67.32l-.12,0c-.39.19-.8.38-1.23.56l-1.6.72-1.62.71-.18.08-1.48.62c-.26.12-.51.22-.77.32s-.53.22-.79.33l-1.22.5-1.27.5c-.57.24-1.15.45-1.75.69l-.9.36c-.91.35-1.86.7-2.84,1.06-.6.24-1.23.46-1.86.7s-1.28.45-1.94.7l-1.33.47c-.36.12-.72.24-1.09.38s-.73.26-1.11.38c-10.58,3.65-24,7.7-40.92,11.91l-3,.73q-11.28,2.76-24.58,5.56l-4.86,1c-10,2-20.76,4.05-32.48,6.05-13.14,2.23-27.42,4.44-42.94,6.55l-3.9.53q-5.88.79-12,1.57-14.67,1.85-28.76,3.15-14.54,1.34-28.42,2.08a558.05,558.05,0,0,1-67.07-.14c-31.65-2.09-59.66-7.27-83.66-15.64a205.14,205.14,0,0,1-20.89-8.57A158.65,158.65,0,0,1,19.33,336.7c-.42-.32-.85-.65-1.27-1a122,122,0,0,1-35.44-43.35q-4.25-8.78-7.7-17.4c-.19-.47-.38-.92-.55-1.37s-.36-.88-.52-1.32c-1-2.59-1.89-4.9-2.58-6.84-.47-1.3-1.17-3.28-2-5.7,0,0,0,0,0,0l0,0a0,0,0,0,1,0,0l0,0a.19.19,0,0,0,0-.07s0,0,0,0l-.25-.75a2.22,2.22,0,0,1-.09-.28c-.12-.34-.24-.67-.34-1a.83.83,0,0,0,0-.15l-.09-.23-.09-.31s0,.07,0,.11c-.05-.15-.09-.3-.15-.46-.11-.33-.21-.64-.31-1l-.15-.49c-.06-.18-.12-.34-.17-.52-1.27-4-2.44-8-3.47-12-.13-.49-.25-1-.37-1.43-1.79-7.32-3-12.89-3.38-14.73-.14-.72-.93-4.7-1.69-9.37a288.23,288.23,0,0,1-3.14-28.7,298.53,298.53,0,0,1-.09-30.8c.11-2.46.33-6.31.75-11.25.72-8.35,2-19.84,4.54-33.12.15-.79.31-1.64.49-2.54,3.07-15,11.42-42.11,26.49-69.84s37-56.35,67.2-73.91c20.8-12.1,45.55-19,74.7-16.91q5.53.41,11.28,1.24s5.28.75,14.88,2.87c3.85.85,8.4,1.92,13.58,3.26,5.49,1.41,11.7,3.12,18.54,5.17,0,0,12.34,3.68,25.36,8.28l4.39,1.57c2.94,1.06,5.12,1.86,5.79,2.11,31.84,11.79,64.4,28.09,64.4,28.09q19.26,9.65,37.88,20.49,7.11,4.14,14.11,8.44,7.5,4.59,14.87,9.4c3,2,6,3.92,8.93,5.88l4.08,2.72a754.65,754.65,0,0,1,71.77,54.5q1.69,1.45,3.31,2.89l2.82,2.48.45.41c.3.25.59.51.88.77l1.41,1.29.77.68c.18.16.36.33.53.47a.17.17,0,0,0,.06.06c.2.17.37.35.54.5s.23.2.34.3.29.25.42.38l.27.23c.23.21.46.41.69.63l.31.28c.4.36.79.73,1.19,1.08l.29.28.12.11a.6.6,0,0,1,.08.08l.08.07.1.09h0a1.45,1.45,0,0,0,.22.21l.39.36c.4.38.79.74,1.19,1.09,2.71,2.54,5.3,5,7.78,7.41,7.36,7.12,13.71,13.69,19.14,19.59,1.18,1.28,2.31,2.54,3.41,3.75.55.6,1.09,1.21,1.61,1.81s1,1.17,1.54,1.75c14.35,16.4,20.27,26.1,20.27,26.1S544.4,221.75,533.35,264.15Z"/></clipPath><clipPath id="clip-path-8"><path class="cls-1" d="M560.06,206.47c0,34.18-37.06,64-37.06,64s-.33.41-1.08,1.21l-.27.28-.81.82-.14.13c-.69.68-1.56,1.5-2.64,2.47l-.57.52-.45.39-.67.58c-.15.14-.32.27-.49.41l-.4.35-.71.59c-.16.15-.33.29-.51.43l-.09.07c-.3.25-.61.51-.94.76l-1.22,1-1.24,1-.14.11-1.14.87c-.19.16-.39.31-.59.45l-.61.46-.94.71-1,.72-1.36,1-.7.51-2.21,1.56-1.45,1c-.5.34-1,.68-1.52,1l-1.05.71-.85.57-.88.58c-8.32,5.54-19,12.07-32.68,19.51l-2.4,1.3q-9.13,4.92-20,10.34l-4,2c-8.15,4-17,8.17-26.71,12.54Q394.32,344.71,375,352.7L371.71,354q-4.9,2-10,4.06-12.26,4.9-24.15,9.2-12.25,4.43-24.09,8.2a499.86,499.86,0,0,1-58,15c-27.82,5.32-53.2,7.15-75.82,5.32a182.19,182.19,0,0,1-20-2.7,141.46,141.46,0,0,1-27.47-8.18l-1.32-.57a108.87,108.87,0,0,1-40.39-29.48q-5.66-6.63-10.58-13.31c-.27-.36-.53-.71-.78-1.06s-.51-.68-.75-1c-1.47-2-2.73-3.81-3.77-5.33-.7-1-1.75-2.57-3-4.48,0,0,0,0,0,0l0,0s0,0,0,0l0,0,0-.05,0,0-.39-.6-.14-.22q-.27-.39-.51-.78a.75.75,0,0,0-.07-.12l-.13-.18-.15-.24.06.08-.23-.36-.49-.76-.24-.39c-.09-.14-.18-.27-.26-.41q-3-4.81-5.71-9.61c-.22-.39-.43-.76-.64-1.15-3.2-5.93-5.5-10.47-6.24-12-.28-.58-1.86-3.85-3.57-7.71-5-11.3-8.36-21.55-9.18-24.1a267,267,0,0,1-7-26.59c-.46-2.16-1.14-5.53-1.89-9.9-1.26-7.38-2.7-17.61-3.53-29.64q-.07-1.08-.15-2.31c-.72-13.66.39-39,7.17-66.32s19.31-57,41.44-79c15.25-15.15,35.08-26.68,60.75-31.44,3.24-.6,6.58-1.1,10-1.47,0,0,4.74-.54,13.51-.87,3.52-.14,7.69-.23,12.47-.24,5.06,0,10.81.06,17.19.29,0,0,11.49.41,23.77,1.45l4.16.36,5.48.53c30.17,3,62,9.77,62,9.77q18.82,4,37.35,9.18,7.08,2,14.1,4.12,7.51,2.28,15,4.77,4.59,1.53,9,3.07c1.39.48,2.77,1,4.14,1.44a673.06,673.06,0,0,1,74.3,30.94c1.19.58,2.36,1.16,3.51,1.75l3,1.51.48.25.93.47,1.51.79.82.42.56.29.07,0,.58.31.36.19.45.23.28.14.74.39.33.17,1.27.67.32.17.13.07.08,0,.09,0,.1.06h0l.24.13.42.22,1.27.68c2.92,1.58,5.71,3.12,8.4,4.65,8,4.49,14.93,8.74,21,12.62,1.31.84,2.57,1.67,3.79,2.47l1.8,1.2,1.72,1.17c16.1,10.94,23.4,18,23.4,18S560.06,167.33,560.06,206.47Z"/></clipPath><clipPath id="clip-path-9"><path class="cls-1" d="M562.59,206.47c0,34.18-37.06,64-37.06,64s-.33.41-1.08,1.21l-.27.28-.81.82-.14.13c-.69.68-1.56,1.5-2.64,2.47l-.57.52-.45.39-.67.58c-.15.14-.32.27-.49.41l-.4.35-.71.59c-.16.15-.33.29-.51.43l-.09.07c-.3.25-.61.51-.94.76l-1.22,1-1.24,1-.14.11-1.14.87c-.19.16-.39.31-.59.45l-.61.46-.94.71-1,.72-1.36,1-.7.51-2.21,1.56-1.45,1c-.5.34-1,.68-1.52,1l-1.05.71-.85.57-.88.58c-8.32,5.54-19,12.07-32.68,19.51l-2.4,1.3q-9.14,4.92-20,10.34l-4,2c-8.15,4-17,8.17-26.71,12.54q-16.28,7.33-35.63,15.33L374.24,354q-4.9,2-10,4.06-12.26,4.9-24.15,9.2-12.26,4.43-24.09,8.2a499.86,499.86,0,0,1-58,15c-27.82,5.32-53.2,7.15-75.82,5.32a182.19,182.19,0,0,1-20-2.7,141.46,141.46,0,0,1-27.47-8.18l-1.32-.57A108.87,108.87,0,0,1,93,354.87q-5.66-6.63-10.58-13.31c-.27-.36-.53-.71-.78-1.06s-.51-.68-.75-1c-1.47-2-2.73-3.81-3.77-5.33-.7-1-1.75-2.57-3-4.48,0,0,0,0,0,0l0,0s0,0,0,0l0,0,0-.05,0,0-.39-.6-.14-.22q-.27-.39-.51-.78a.75.75,0,0,0-.07-.12l-.13-.18-.15-.24.06.08-.23-.36-.49-.76-.24-.39c-.09-.14-.18-.27-.26-.41q-3-4.81-5.71-9.61c-.22-.39-.43-.76-.64-1.15-3.19-5.93-5.5-10.47-6.24-12-.28-.58-1.86-3.85-3.57-7.71-5-11.3-8.36-21.55-9.18-24.1a267,267,0,0,1-7-26.59c-.46-2.16-1.14-5.53-1.88-9.9-1.26-7.38-2.71-17.61-3.54-29.64q-.07-1.08-.15-2.31c-.72-13.66.39-39,7.17-66.32s19.31-57,41.44-79c15.25-15.15,35.08-26.68,60.75-31.44,3.24-.6,6.58-1.1,10-1.47,0,0,4.74-.54,13.51-.87,3.52-.14,7.69-.23,12.47-.24,5.07,0,10.81.06,17.19.29,0,0,11.49.41,23.78,1.45l4.15.36,5.48.53c30.17,3,62,9.77,62,9.77q18.82,4,37.35,9.18,7.08,2,14.1,4.12,7.52,2.28,15,4.77,4.59,1.53,9,3.07c1.39.48,2.77,1,4.14,1.44a673.06,673.06,0,0,1,74.3,30.94c1.19.58,2.36,1.16,3.51,1.75l3,1.51.48.25.93.47,1.51.79.82.42.56.29.07,0,.58.31.36.19.45.23.28.14.74.39L459,96l1.27.67.32.17.13.07.08,0,.09,0,.1.06h0l.24.13.42.22,1.27.68c2.92,1.58,5.71,3.12,8.4,4.65,8,4.49,14.93,8.74,20.95,12.62,1.31.84,2.57,1.67,3.79,2.47l1.8,1.2,1.72,1.17c16.1,10.94,23.4,18,23.4,18S562.59,167.33,562.59,206.47Z"/></clipPath></defs><path class="cls-2" d="M543,206.47c0,34.18-37.06,64-37.06,64s-.33.41-1.08,1.21l-.27.28-.81.82-.14.13c-.69.68-1.56,1.5-2.64,2.47l-.57.52-.45.39-.67.58c-.15.14-.32.27-.49.41l-.4.35-.71.59c-.16.15-.33.29-.51.43l-.09.07c-.3.25-.61.51-.94.76l-1.22,1-1.24,1-.14.11-1.14.87c-.19.16-.39.31-.59.45l-.61.46-.94.71-1,.72-1.36,1-.7.51-2.21,1.56-1.45,1c-.5.34-1,.68-1.52,1l-1.05.71-.85.57-.88.58c-8.32,5.54-19,12.07-32.68,19.51l-2.4,1.3q-9.13,4.92-20,10.34l-4,2c-8.15,4-17,8.17-26.71,12.54q-16.27,7.33-35.63,15.33L354.69,354q-4.9,2-10,4.06-12.25,4.9-24.15,9.2-12.25,4.43-24.09,8.2a499.86,499.86,0,0,1-58,15c-27.82,5.32-53.2,7.15-75.82,5.32a182.19,182.19,0,0,1-20-2.7,141.46,141.46,0,0,1-27.47-8.18l-1.32-.57a108.87,108.87,0,0,1-40.39-29.48q-5.65-6.63-10.58-13.31c-.27-.36-.53-.71-.78-1.06s-.51-.68-.75-1c-1.47-2-2.73-3.81-3.77-5.33-.7-1-1.75-2.57-3-4.48,0,0,0,0,0,0l0,0s0,0,0,0l0,0,0-.05,0,0-.39-.6-.14-.22q-.27-.39-.51-.78a.75.75,0,0,0-.07-.12l-.13-.18-.15-.24.06.08-.23-.36-.49-.76-.24-.39c-.09-.14-.18-.27-.26-.41q-3-4.81-5.71-9.61c-.22-.39-.43-.76-.64-1.15-3.19-5.93-5.5-10.47-6.24-12-.28-.58-1.86-3.85-3.57-7.71-5-11.3-8.36-21.55-9.18-24.1a267,267,0,0,1-7-26.59c-.46-2.16-1.14-5.53-1.88-9.9-1.26-7.38-2.71-17.61-3.54-29.64q-.07-1.08-.15-2.31c-.72-13.66.39-39,7.17-66.32s19.31-57,41.44-79c15.25-15.15,35.08-26.68,60.75-31.44,3.24-.6,6.58-1.1,10-1.47,0,0,4.74-.54,13.51-.87,3.52-.14,7.69-.23,12.47-.24,5.07,0,10.81.06,17.19.29,0,0,11.49.41,23.78,1.45l4.15.36,5.48.53c30.17,3,62,9.77,62,9.77q18.83,4,37.35,9.18,7.08,2,14.1,4.12,7.51,2.28,15,4.77,4.59,1.53,9,3.07c1.39.48,2.77,1,4.14,1.44A673.06,673.06,0,0,1,425.8,89.1c1.19.58,2.36,1.16,3.51,1.75l3,1.51.48.25.93.47,1.51.79.82.42.56.29.07,0,.58.31.36.19.45.23.28.14.74.39.33.17,1.27.67.32.17.13.07.08,0,.09,0,.1.06h0l.24.13.42.22,1.27.68c2.92,1.58,5.71,3.12,8.4,4.65,8,4.49,14.93,8.74,20.95,12.62,1.31.84,2.57,1.67,3.79,2.47l1.8,1.2,1.72,1.17c16.1,10.94,23.4,18,23.4,18S543,167.33,543,206.47Z"/><g class="cls-3"><g class="cls-4"><path class="cls-5" d="M332.65-3.7C217,74.16,88.73,194.45,45.63,366.94q-3.71,14.83-6.43,29.54L-100.3,232-73.19-81.8,32.58-141.26Z"/></g><g class="cls-4"><path class="cls-6" d="M337-3.87C228.5,54.64,83,159.09,10.54,333.94Q.48,358.24-7,382.25L-93.91,216.18-57.65-22.94,40.19-130.41Z"/></g><g class="cls-4"><path class="cls-7" d="M326.82,1.52c-85.66,32-280.47,119.13-350.48,308.36A403.76,403.76,0,0,0-40.33,368L-146.68,117.36-62.08-68l76.21-83Z"/></g><g class="cls-4"><path class="cls-8" d="M302.1,7.22C210.53,37,6.84,108.84-52.66,289.67a320.34,320.34,0,0,0-10.16,39L-87.07,62-65.92-99.09l166.19,1.65Z"/></g></g><g class="cls-3"><path class="cls-9" d="M286.1,15.93C189.93,30.71,44.22,70.52-24.27,188.29q-5,8.58-9.44,17.78l-32-162.85,92.2-87.74,242.26,33Z"/></g><g class="cls-3"><g class="cls-10"><path class="cls-5" d="M221.34,405.48a417.47,417.47,0,0,0,63-27c45.16-23.93,164.59-87.61,171-189,5.87-92.9-86.7-162.06-99-171l280,167.88-19,102.12s-63,72-72,81-198,36-216,36Z"/></g><g class="cls-11"><path class="cls-6" d="M419.33,72.44c14,14.06,36.91,41.4,44.95,81,13.37,65.92-23.59,120.94-45.1,153-14,20.85-39.13,52.44-81.05,80.95l288-53.82-8.86-207Z"/></g><g class="cls-11"><path class="cls-7" d="M439.87,81.48c11.09,13.42,28.09,37.75,36,72,10.31,44.7-.74,80.93-9,108a283.42,283.42,0,0,1-54,99l135-18,36-90,9-99-72-99Z"/></g><g class="cls-11"><path class="cls-8" d="M457.87,90.48a219.38,219.38,0,0,1,36,90c11,70.66-16.68,125.63-27,144l108-45,9-81v-90Z"/></g></g><g class="cls-3"><path class="cls-9" d="M474.32,99.48a320.39,320.39,0,0,1,36,216l72-81v-81Z"/></g><path class="cls-9" d="M168.14,233.38a3,3,0,0,0-1.71-2.62,25.39,25.39,0,0,0-6.47-2,29.49,29.49,0,0,1-7.88-2.79,13.27,13.27,0,0,1-4.74-4.18,10,10,0,0,1-1.63-5.65,11.33,11.33,0,0,1,4.66-9.3q4.66-3.66,12.2-3.66,8.1,0,13,3.68a11.5,11.5,0,0,1,4.93,9.66H167.72c0-3.28-1.73-4.93-5.19-4.93a5.17,5.17,0,0,0-3.37,1.12,3.47,3.47,0,0,0-1.36,2.79,3.17,3.17,0,0,0,1.66,2.76,15.61,15.61,0,0,0,5.33,1.74,47.45,47.45,0,0,1,6.42,1.63q9.24,3.19,9.24,11.41a10.75,10.75,0,0,1-5,9.13q-5,3.52-12.9,3.52a22.38,22.38,0,0,1-9.4-1.89,15.73,15.73,0,0,1-6.44-5.16,11.64,11.64,0,0,1-2.31-6.85h11.94a4.92,4.92,0,0,0,1.89,4.14,7.74,7.74,0,0,0,4.66,1.31,6.11,6.11,0,0,0,3.92-1.06A3.4,3.4,0,0,0,168.14,233.38Z"/><path class="cls-9" d="M210.83,240.46a13.16,13.16,0,0,1-11,5.19q-6.74,0-10.21-3.92t-3.46-11.27V203.9H199v26.63q0,5.26,5.11,5.27,4.4,0,6.25-3.14V203.9h12.84v41h-12Z"/><path class="cls-9" d="M242.24,203.9l.41,4.81a14.12,14.12,0,0,1,11.71-5.57q7.77,0,10.49,6.18,4.17-6.18,12-6.18,12.47,0,12.81,15.08v26.67H276.9V219a7.81,7.81,0,0,0-1.06-4.59c-.71-1-2-1.44-3.86-1.44a6.06,6.06,0,0,0-5.65,3.38l0,.53v28h-12.8v-25.8a8.24,8.24,0,0,0-1-4.66q-1-1.44-3.9-1.44a6.13,6.13,0,0,0-5.61,3.38v28.52H230.27v-41Z"/><path class="cls-9" d="M309.06,203.9l.42,4.81a14.1,14.1,0,0,1,11.71-5.57q7.76,0,10.49,6.18,4.17-6.18,12.05-6.18,12.45,0,12.8,15.08v26.67h-12.8V219a7.88,7.88,0,0,0-1.06-4.59Q341.6,213,338.8,213a6,6,0,0,0-5.64,3.38l0,.53v28h-12.8v-25.8a8.25,8.25,0,0,0-1-4.66c-.68-1-2-1.44-3.9-1.44a6.13,6.13,0,0,0-5.61,3.38v28.52H297.09v-41Z"/><path class="cls-9" d="M400,193.71V203.9h6.74v8.87H400v18.75a4.83,4.83,0,0,0,.83,3.22c.56.6,1.66.91,3.3.91a18.86,18.86,0,0,0,3.18-.23v9.13a23.66,23.66,0,0,1-7.2,1.1q-6.58,0-9.73-3.11t-3.15-9.43V212.77H382V203.9h5.22V193.71Z"/><path class="cls-9" d="M397.47,174.69c-.14.22-.21.45-.36.56-.84.57-1.71,1.09-2.54,1.66-1.14.77-2.29,1.52-3.37,2.36a27,27,0,0,0-9.7,15.26,35.55,35.55,0,0,0-1,6.65c-.17,3.24-.42,6.49-.62,9.74-.08,1.29-.14,2.59-.19,3.9a35.82,35.82,0,0,1-1.5,9,30.37,30.37,0,0,1-6.63,11.82,41.67,41.67,0,0,1-12.47,9.24.47.47,0,0,1-.4,0,.35.35,0,0,1,0-.34,6,6,0,0,1,.5-.71c.39-.52.78-1,1.18-1.55a32.07,32.07,0,0,0,5.84-12.71,37,37,0,0,0,.63-12.5c-.41-3.45-1-6.86-1.68-10.27-1-5.61-2.38-11.16-3.92-16.66a50.25,50.25,0,0,1-1.87-12.19,45.76,45.76,0,0,1,5-22,56.66,56.66,0,0,1,3.13-5.46q3-4.53,5.92-9.08c.91-1.4,1.81-2.79,2.65-4.23.73-1.24,1.42-2.52,2-3.82a21.65,21.65,0,0,0,2.22-13c0-.08.13-.2.22-.27s.13,0,.2,0a.49.49,0,0,1,.18.11,22.44,22.44,0,0,1,3.28,4.57,14.79,14.79,0,0,1,1.18,3,10.7,10.7,0,0,1-.24,6.19,59.54,59.54,0,0,1-2.59,6.43c-2,4.4-4.41,8.62-6.85,12.81-1.05,1.81-2.11,3.62-3.13,5.45a45.43,45.43,0,0,0-2.48,5.29,28.1,28.1,0,0,0-1.57,13.86,11.81,11.81,0,0,0,.47,2.12,7,7,0,0,0,.6,1.38,3.53,3.53,0,0,0,4.69,1.68l.12-.06a7.13,7.13,0,0,0,2-1.22c.77-.66,1.52-1.33,2.24-2s1.56-1.7,2.39-2.51a24.58,24.58,0,0,1,2.57-2.32,10.51,10.51,0,0,1,8.8-2A15.35,15.35,0,0,1,397.47,174.69Z"/><path class="cls-9" d="M370.62,171.12a5.37,5.37,0,0,1,.56-2.55,4.94,4.94,0,0,1,1-1.4,5.74,5.74,0,0,1,8.16.24,5.38,5.38,0,0,1,.72,6.25,5.82,5.82,0,0,1-2.06,2.18,4.93,4.93,0,0,1-4.76.42,5.91,5.91,0,0,1-3.1-2.87A4.28,4.28,0,0,1,370.62,171.12Z"/><path class="cls-9" d="M151.11,174.65l7.07,18.79,7.06-18.79h5.5v24.51H166.5v-8.08l.42-10.81-7.24,18.89h-3l-7.23-18.87.42,10.79v8.08h-4.24V174.65Z"/><path class="cls-9" d="M180.27,199.16H176V174.65h4.24Z"/><path class="cls-9" d="M202.73,178.08h-7.64v21.08h-4.23V178.08h-7.57v-3.43h19.44Z"/><path class="cls-9" d="M208.91,190.39h-8.84v-3.3h8.84Z"/><path class="cls-9" d="M231.91,193.1l3.77-18.45h4.23l-5.66,24.51h-4.07l-4.66-17.9-4.77,17.9h-4.09L211,174.65h4.23l3.8,18.42,4.68-18.42h3.57Z"/><path class="cls-9" d="M247.28,190.07v9.09H243V174.65h9.38a9.48,9.48,0,0,1,6.53,2.14,7.19,7.19,0,0,1,2.41,5.66,7,7,0,0,1-2.36,5.61,10,10,0,0,1-6.63,2Zm0-3.43h5.12a5.06,5.06,0,0,0,3.47-1.07,3.94,3.94,0,0,0,1.2-3.09,4.24,4.24,0,0,0-1.22-3.18,4.63,4.63,0,0,0-3.33-1.22h-5.24Z"/><path class="cls-9" d="M283,174.65V191a8,8,0,0,1-2.5,6.19,11,11,0,0,1-13.35,0,8,8,0,0,1-2.47-6.24V174.65h4.24v16.4a5.19,5.19,0,0,0,1.25,3.75,4.83,4.83,0,0,0,3.67,1.3q4.91,0,4.91-5.19V174.65Z"/><path class="cls-9" d="M348.3,279.78H331.5v-3.33l7.93-8.45a19.9,19.9,0,0,0,2.42-3.12,5,5,0,0,0,.78-2.52,3.75,3.75,0,0,0-.83-2.57,3,3,0,0,0-2.35-.94,3.2,3.2,0,0,0-2.6,1.14,4.49,4.49,0,0,0-1,3H331a8.06,8.06,0,0,1,1.07-4.09,7.56,7.56,0,0,1,3-2.91,9.23,9.23,0,0,1,4.43-1,8.72,8.72,0,0,1,5.89,1.82,6.45,6.45,0,0,1,2.09,5.14,8.22,8.22,0,0,1-.94,3.7,20.69,20.69,0,0,1-3.23,4.39l-5.58,5.88H348.3Z"/><path class="cls-9" d="M367.78,269.65q0,5.09-2.1,7.78a8.42,8.42,0,0,1-12.29.05c-1.42-1.77-2.14-4.29-2.17-7.58v-4.51c0-3.43.71-6,2.13-7.8a8.42,8.42,0,0,1,12.26,0c1.42,1.75,2.14,4.28,2.17,7.56Zm-4.86-5a8.88,8.88,0,0,0-.84-4.44,2.81,2.81,0,0,0-2.6-1.4,2.77,2.77,0,0,0-2.53,1.33,8.4,8.4,0,0,0-.87,4.14v6a9.35,9.35,0,0,0,.82,4.46,2.78,2.78,0,0,0,2.62,1.46,2.73,2.73,0,0,0,2.57-1.4,9.12,9.12,0,0,0,.83-4.28Z"/><path class="cls-9" d="M387.87,279.78h-16.8v-3.33L379,268a19.16,19.16,0,0,0,2.41-3.12,4.92,4.92,0,0,0,.79-2.52,3.75,3.75,0,0,0-.83-2.57,3,3,0,0,0-2.36-.94,3.21,3.21,0,0,0-2.6,1.14,4.54,4.54,0,0,0-1,3h-4.88a8.06,8.06,0,0,1,1.07-4.09,7.56,7.56,0,0,1,3-2.91,9.2,9.2,0,0,1,4.43-1,8.69,8.69,0,0,1,5.88,1.82,6.42,6.42,0,0,1,2.1,5.14,8.35,8.35,0,0,1-.94,3.7A20.45,20.45,0,0,1,382.9,270l-5.57,5.88h10.54Z"/><path class="cls-9" d="M395.8,265.37h2.59a3.66,3.66,0,0,0,2.75-.93A3.38,3.38,0,0,0,402,262a3,3,0,0,0-.88-2.31,3.44,3.44,0,0,0-2.44-.83,3.6,3.6,0,0,0-2.34.77,2.45,2.45,0,0,0-.94,2h-4.87a6,6,0,0,1,1-3.45,6.93,6.93,0,0,1,2.9-2.38,9.68,9.68,0,0,1,4.1-.86,9.16,9.16,0,0,1,6.09,1.86,6.35,6.35,0,0,1,2.21,5.13,5.22,5.22,0,0,1-1,3.1,6.77,6.77,0,0,1-2.69,2.17,5.72,5.72,0,0,1,4.1,5.72,6.45,6.45,0,0,1-2.38,5.24,9.59,9.59,0,0,1-6.3,2,9.11,9.11,0,0,1-6-1.94,6.32,6.32,0,0,1-2.33-5.11h4.87a2.8,2.8,0,0,0,1,2.25,3.78,3.78,0,0,0,2.55.88,3.83,3.83,0,0,0,2.72-.92,3.15,3.15,0,0,0,1-2.43q0-3.68-4-3.67H395.8Z"/></svg>