<svg width="933" height="559" viewBox="0 0 933 559" fill="none" xmlns="http://www.w3.org/2000/svg">
<rect width="933" height="559" fill="white"/>
<path d="M54.0428 94.6913C58.9832 80.8364 65.3875 67.4385 75.3078 56.5779C148.204 -23.2285 288.011 36.1182 292.507 74.1222C297.299 114.619 322.853 213.469 240.442 256.836C158.031 300.202 124.777 339.676 61.8848 304.347C-0.544923 269.279 36.3356 144.35 54.0428 94.6913Z" fill="#ED8842" fill-opacity="0.1"/>
<path d="M53.5775 96.5631C58.608 82.7325 65.142 69.301 74.7624 58.1637C160.725 -41.3538 330.67 30.2569 336.08 75.9394C341.784 124.105 372.205 241.674 274.097 293.253C175.989 344.832 136.401 391.78 61.5295 349.762C-14.4602 307.116 33.1449 152.74 53.5775 96.5631Z" fill="#ED8842" fill-opacity="0.1"/>
<path d="M50.2026 103.248C55.304 89.4369 61.8544 76.1651 71.2533 64.8329C170.214 -54.4835 370.33 29.3956 376.653 82.7566C383.27 138.591 418.558 274.879 304.753 334.67C190.947 394.461 145.025 448.885 58.1742 400.177C-31.5662 349.848 27.2901 165.277 50.2026 103.248Z" fill="#ED8842" fill-opacity="0.1"/>
</svg>